<svg width="115" height="112" viewBox="0 0 115 112" fill="none" xmlns="http://www.w3.org/2000/svg">
<path d="M44.9219 45.6642C49.8838 45.6642 53.9062 40.2286 53.9062 33.5236C53.9062 26.8185 49.8838 21.3829 44.9219 21.3829C39.9599 21.3829 35.9375 26.8185 35.9375 33.5236C35.9375 40.2286 39.9599 45.6642 44.9219 45.6642Z" fill="#6D7E68" stroke="#6D7E68" stroke-width="2" stroke-miterlimit="10"/>
<path d="M70.0781 45.6642C75.0401 45.6642 79.0625 40.2286 79.0625 33.5236C79.0625 26.8185 75.0401 21.3829 70.0781 21.3829C65.1162 21.3829 61.0938 26.8185 61.0938 33.5236C61.0938 40.2286 65.1162 45.6642 70.0781 45.6642Z" fill="#6D7E68" stroke="#6D7E68" stroke-width="2" stroke-miterlimit="10"/>
<path d="M26.9531 69.9454C31.9151 69.9454 35.9375 64.5099 35.9375 57.8048C35.9375 51.0997 31.9151 45.6642 26.9531 45.6642C21.9912 45.6642 17.9688 51.0997 17.9688 57.8048C17.9688 64.5099 21.9912 69.9454 26.9531 69.9454Z" fill="#6D7E68" stroke="#6D7E68" stroke-width="2" stroke-miterlimit="10"/>
<path d="M88.0469 69.9454C93.0088 69.9454 97.0312 64.5099 97.0312 57.8048C97.0312 51.0997 93.0088 45.6642 88.0469 45.6642C83.0849 45.6642 79.0625 51.0997 79.0625 57.8048C79.0625 64.5099 83.0849 69.9454 88.0469 69.9454Z" fill="#6D7E68" stroke="#6D7E68" stroke-width="2" stroke-miterlimit="10"/>
<path d="M68.2812 69.9454C64.8097 66.5946 64.6875 59.5392 57.5 59.5392C50.3125 59.5392 50.3125 66.4767 46.7188 69.9454C43.125 73.4142 32.3438 73.6535 32.3438 82.0861C32.3438 86.8764 36.3652 90.7579 41.3281 90.7579C45.4861 90.7579 54.5675 87.2892 57.5 87.2892C60.4325 87.2892 69.5139 90.7579 73.6719 90.7579C78.6348 90.7579 82.6562 86.8764 82.6562 82.0861C82.6562 74.1322 71.7528 73.2962 68.2812 69.9454Z" fill="#6D7E68" stroke="#6D7E68" stroke-width="2" stroke-miterlimit="10"/>
</svg>
