<svg width="69" height="74" viewBox="0 0 69 74" fill="none" xmlns="http://www.w3.org/2000/svg">
<path d="M56 1.5C57.4064 1.5 58.5653 2.26352 59.3213 3.27148C59.4567 3.45207 59.5808 3.6433 59.6943 3.84277C60.0078 3.70901 60.3446 3.6016 60.7061 3.5293L61.1084 3.45605C62.044 3.30518 62.9508 3.29854 63.8096 3.59961C64.8239 3.95529 65.5437 4.65824 66.1309 5.49609L66.2539 5.69238C66.3303 5.82765 66.3942 5.97171 66.4434 6.12305L66.5059 6.35449L66.5518 6.59277C66.7559 7.77495 66.5563 8.79637 65.9775 9.69336C65.5683 10.3276 64.9982 10.8442 64.4434 11.2842L63.9004 11.7002C63.0171 12.3627 61.9542 12.7392 60.9238 12.8838L49.3086 27.6279C48.4971 28.6579 47.0415 28.8763 45.9707 28.1699L45.7617 28.0156L41.8066 24.7803C40.755 23.9198 40.5834 22.3764 41.4199 21.3057L51.6162 8.25391C51.5397 7.84748 51.5 7.42725 51.5 7C51.5 5.60226 51.9231 4.27902 52.6787 3.27148C53.4347 2.26352 54.5936 1.5 56 1.5Z" fill="#F7EFB4" stroke="#DBD183" stroke-width="3"/>
<path d="M48.5 49C45 63.5 38.031 71.5 24.5 71.5C10.969 71.5 2 59.4787 2 46.5C2 33.5213 22.469 21.5 36 21.5C49.531 21.5 52 34.5 48.5 49Z" fill="#B47022" stroke="#9C5D15" stroke-width="4"/>
<path d="M27.4657 67.4446L27.5784 67.5573" stroke="#9C5D15" stroke-width="2" stroke-linecap="round"/>
<path d="M32.0856 66.4305V66.5432" stroke="#9C5D15" stroke-width="2" stroke-linecap="round"/>
<path d="M29.2687 63.1628L29.3814 63.0501" stroke="#9C5D15" stroke-width="2" stroke-linecap="round"/>
<path d="M36.4801 25.5278L36.3674 25.6405" stroke="#9C5D15" stroke-width="2" stroke-linecap="round"/>
<path d="M30.6208 25.5278V25.6405" stroke="#9C5D15" stroke-width="2" stroke-linecap="round"/>
<path d="M33.5504 28.4575H33.8885" stroke="#9C5D15" stroke-width="2" stroke-linecap="round"/>
<path d="M33.8885 63.0501H34.1139" stroke="#9C5D15" stroke-width="2" stroke-linecap="round"/>
<path d="M35.5787 67.8953H35.4661" stroke="#9C5D15" stroke-width="2" stroke-linecap="round"/>
<path d="M30.5081 69.3602V69.4728" stroke="#9C5D15" stroke-width="2" stroke-linecap="round"/>
<path d="M38.283 64.515V64.6276" stroke="#9C5D15" stroke-width="2" stroke-linecap="round"/>
</svg>
