<svg width="71" height="71" viewBox="0 0 71 71" fill="none" xmlns="http://www.w3.org/2000/svg">
<path d="M35.5 65.0833C51.8384 65.0833 65.0833 51.8384 65.0833 35.5C65.0833 19.1616 51.8384 5.91666 35.5 5.91666C19.1615 5.91666 5.91663 19.1616 5.91663 35.5C5.91663 51.8384 19.1615 65.0833 35.5 65.0833Z" stroke="#CEC162" stroke-width="8" stroke-linecap="round"/>
<path d="M27.814 39.9375C32 41.5 36 41.5 36 41.5M36 41.5C37.5579 41.5 34 41.5 36 41.5ZM36 41.5C36 41.5 40 41.5 44 39.9375" stroke="#CEC162" stroke-width="6" stroke-linecap="round"/>
<path d="M30 26.5C30 24.567 26.5 24.5 26.5 24.5C26.5 24.5 23 24.567 23 26.5C23 28.433 25.1618 30 26.5 30C27.8382 30 30 28.433 30 26.5Z" fill="#CEC162"/>
<path d="M48 26.5C48 24.567 44.5 24.5 44.5 24.5C44.5 24.5 41 24.567 41 26.5C41 28.433 43.1618 30 44.5 30C45.8382 30 48 28.433 48 26.5Z" fill="#CEC162"/>
</svg>
