<svg width="71" height="71" viewBox="0 0 71 71" fill="none" xmlns="http://www.w3.org/2000/svg">
<path d="M35.5 65.0833C51.8384 65.0833 65.0833 51.8384 65.0833 35.5C65.0833 19.1616 51.8384 5.91666 35.5 5.91666C19.1615 5.91666 5.91663 19.1616 5.91663 35.5C5.91663 51.8384 19.1615 65.0833 35.5 65.0833Z" stroke="#68A158" stroke-width="8" stroke-linecap="round"/>
<path d="M27.814 39.9375C28.5929 41.2868 29.7132 42.4071 31.0625 43.186C32.4117 43.965 33.9421 44.375 35.5 44.375C37.0578 44.375 38.5882 43.965 39.9375 43.186C41.2867 42.4071 42.4071 41.2868 43.186 39.9375" stroke="#68A158" stroke-width="6" stroke-linecap="round"/>
<path d="M26.625 23.2969H23.6666C21.8286 23.2969 20.3385 24.7869 20.3385 26.625C20.3385 28.4631 21.8286 29.9531 23.6666 29.9531H26.625C28.463 29.9531 29.9531 28.4631 29.9531 26.625C29.9531 24.7869 28.463 23.2969 26.625 23.2969Z" fill="#68A158"/>
<path d="M47.3333 23.2969H44.375C42.5369 23.2969 41.0469 24.7869 41.0469 26.625C41.0469 28.4631 42.5369 29.9531 44.375 29.9531H47.3333C49.1714 29.9531 50.6615 28.4631 50.6615 26.625C50.6615 24.7869 49.1714 23.2969 47.3333 23.2969Z" fill="#68A158"/>
</svg>
