<svg width="89" height="68" viewBox="0 0 89 68" fill="none" xmlns="http://www.w3.org/2000/svg">
<path d="M86.5 24.9999C86.5 45.5 67 53.5001 44 65C21.5 52.5 2 45.5 2 24.9999C2 4.49987 35.5 -9.99988 44 19.5C52 -9.99988 86.5 4.49987 86.5 24.9999Z" fill="#EA76A8" stroke="#CE6262" stroke-width="4"/>
<path d="M24.5 11.5C25 12.9999 25.5 15 21.5 16.5C13.5 18.5 12 21 10.5 19C8.99999 16.5 14 10.9999 17 9.99994C20 9.00001 23.5 8.5 24.5 11.5Z" fill="white"/>
<path d="M24.5 11.5C25 12.9999 25.5 15 21.5 16.5C13.5 18.5 12 21 10.5 19C8.99999 16.5 14 10.9999 17 9.99994C20 9.00001 23.5 8.5 24.5 11.5Z" fill="white"/>
</svg>
