<svg width="89" height="83" viewBox="0 0 89 83" fill="none" xmlns="http://www.w3.org/2000/svg">
<g clip-path="url(#clip0_18_39)">
<path d="M87.2887 38.1627L70.9687 23.4614C70.9687 23.4614 70.9687 23.4614 70.9685 23.4614L46.3593 1.29152C45.2725 0.312494 43.6222 0.312494 42.5354 1.29152L17.9263 23.4614L1.60614 38.1627C0.434006 39.2187 0.339764 41.0247 1.39576 42.197C2.45175 43.3693 4.25792 43.4632 5.43005 42.4074L16.9817 32.0014V79.5861C16.9817 81.1636 18.2605 82.4426 19.8382 82.4426H31.5123V59.4292C31.5123 52.2965 37.3151 46.4937 44.4478 46.4937C51.5804 46.4937 57.3833 52.2965 57.3833 59.4292V82.4428H69.0573C70.6348 82.4428 71.9139 81.1639 71.9139 79.5862V32.0015L83.4657 42.4075C84.6383 43.4639 86.4446 43.3686 87.5 42.1972C88.5551 41.0249 88.4608 39.2187 87.2887 38.1627ZM54.5266 35.222H34.3685C32.791 35.222 31.5119 33.9432 31.5119 32.3655C31.5119 30.7878 32.7908 29.509 34.3685 29.509H54.5264C56.1039 29.509 57.3829 30.7878 57.3829 32.3655C57.3829 33.9432 56.1041 35.222 54.5266 35.222Z" fill="#6D7E68"/>
</g>
<defs>
<clipPath id="clip0_18_39">
<rect width="89" height="83" fill="white"/>
</clipPath>
</defs>
</svg>
