<svg width="71" height="71" viewBox="0 0 71 71" fill="none" xmlns="http://www.w3.org/2000/svg">
<path d="M35.5 65.0833C51.8384 65.0833 65.0833 51.8384 65.0833 35.5C65.0833 19.1616 51.8384 5.91666 35.5 5.91666C19.1615 5.91666 5.91663 19.1616 5.91663 35.5C5.91663 51.8384 19.1615 65.0833 35.5 65.0833Z" stroke="#CE6262" stroke-width="8" stroke-linecap="round"/>
<path d="M26.5 39.9375C32 36 35.5 36.5 35.5 36.5C35.5 36.5 39 36 44 39.9375" stroke="#CE6262" stroke-width="6" stroke-linecap="round"/>
<path d="M30 26.5C28.5 24.5 25 23.5 25 23.5C25 23.5 23 24.567 23 26.5C23 28.433 25.1618 30 26.5 30C27.8382 30 30 28.433 30 26.5Z" fill="#CE6262"/>
<path d="M48 26.5C48 24.567 46.5 23.5 46.5 23.5C46.5 23.5 42 24.5 41 26.5C41 28.433 43.1618 30 44.5 30C45.8382 30 48 28.433 48 26.5Z" fill="#CE6262"/>
</svg>
